<svg width="33" height="40" viewBox="0 0 33 40" fill="none" xmlns="http://www.w3.org/2000/svg">
<path d="M10.3344 0C4.75859 2.49923 0.866689 8.08516 0.866689 14.5911C0.866689 18.0517 1.97192 21.2551 3.83976 23.8723C5.55561 22.3324 7.80729 21.393 10.2906 21.393C13.4257 21.393 16.1707 22.9262 17.9591 25.2327C18.7648 24.9034 19.6174 24.6732 20.5372 24.6732C22.8602 24.6732 24.9101 25.8387 26.1543 27.6134C28.3336 26.0546 30.1042 23.9599 31.2776 21.5246C29.2846 22.4164 27.0746 22.9179 24.75 22.9179C15.9158 22.9179 8.75465 15.7567 8.75465 6.92254C8.75465 4.4415 9.32631 2.0956 10.3344 0ZM10.2906 22.8411C5.70162 22.8411 1.9857 26.568 1.9857 31.1569C1.9857 31.2775 1.99162 31.3886 1.99668 31.508C0.828556 31.933 0 33.0563 0 34.3713C0 36.0518 1.35844 37.4102 3.0389 37.4102C3.55192 37.4102 4.03012 37.2944 4.45412 37.0702C5.95463 38.5514 8.01553 39.4618 10.2906 39.4618H28.14C30.8222 39.4618 33 37.295 33 34.6127C33 31.9304 30.8222 29.7527 28.14 29.7527C27.3017 29.7527 26.5133 29.9603 25.8251 30.3341C25.2668 27.9223 23.1188 26.1213 20.5372 26.1213C19.4179 26.1213 18.3743 26.4634 17.5093 27.0429C16.0783 24.5376 13.3823 22.8411 10.2906 22.8411Z" fill="#fff"/>
</svg>
