<svg width="33" height="29" viewBox="0 0 33 29" fill="none" xmlns="http://www.w3.org/2000/svg">
<path d="M16.5 0C22.3093 0 25.6049 3.7092 26.0842 8.18869L26.2308 8.18869C29.9693 8.18869 33 11.1046 33 14.7015C33 18.2984 29.9693 21.2143 26.2308 21.2143L24.5426 21.2119L24.5185 21.2716L21.0224 27.6447C20.7109 28.2162 19.995 28.427 19.4235 28.1155C18.9155 27.8386 18.6925 27.2422 18.868 26.7117L18.9527 26.5166L21.8649 21.2119H17.4971L17.4731 21.2716L13.977 27.6447C13.6655 28.2162 12.9496 28.427 12.3781 28.1155C11.8701 27.8386 11.6471 27.2422 11.8226 26.7117L11.9073 26.5166L14.8194 21.2119H10.4091L6.9061 27.6447C6.6292 28.1527 6.03283 28.3757 5.50232 28.2002L5.30722 28.1155C4.7992 27.8386 4.57622 27.2422 4.75172 26.7117L4.83644 26.5166L7.72436 21.2119L6.76923 21.2143C3.03069 21.2143 0 18.2984 0 14.7015C0 11.2378 2.81035 8.40561 6.35691 8.20057L6.91585 8.18869C7.39792 3.67976 10.6907 0 16.5 0Z" fill="#fff"/>
</svg>
