<svg width="33" height="33" viewBox="0 0 33 33" fill="none" xmlns="http://www.w3.org/2000/svg">
<path d="M16.5 8.25C16.8647 8.25 17.2144 8.10513 17.4723 7.84727C17.7301 7.58941 17.875 7.23967 17.875 6.875V4.125C17.875 3.76033 17.7301 3.41059 17.4723 3.15273C17.2144 2.89487 16.8647 2.75 16.5 2.75C16.1353 2.75 15.7856 2.89487 15.5277 3.15273C15.2699 3.41059 15.125 3.76033 15.125 4.125V6.875C15.125 7.23967 15.2699 7.58941 15.5277 7.84727C15.7856 8.10513 16.1353 8.25 16.5 8.25Z" fill="#fff"/>
<path d="M28.875 15.125H26.125C25.7603 15.125 25.4106 15.2699 25.1527 15.5277C24.8949 15.7856 24.75 16.1353 24.75 16.5C24.75 16.8647 24.8949 17.2144 25.1527 17.4723C25.4106 17.7301 25.7603 17.875 26.125 17.875H28.875C29.2397 17.875 29.5894 17.7301 29.8473 17.4723C30.1051 17.2144 30.25 16.8647 30.25 16.5C30.25 16.1353 30.1051 15.7856 29.8473 15.5277C29.5894 15.2699 29.2397 15.125 28.875 15.125Z" fill="#fff"/>
<path d="M8.25 16.5C8.25 16.1353 8.10513 15.7856 7.84727 15.5277C7.58941 15.2699 7.23967 15.125 6.875 15.125H4.125C3.76033 15.125 3.41059 15.2699 3.15273 15.5277C2.89487 15.7856 2.75 16.1353 2.75 16.5C2.75 16.8647 2.89487 17.2144 3.15273 17.4723C3.41059 17.7301 3.76033 17.875 4.125 17.875H6.875C7.23967 17.875 7.58941 17.7301 7.84727 17.4723C8.10513 17.2144 8.25 16.8647 8.25 16.5Z" fill="#fff"/>
<path d="M8.5525 6.875C8.28447 6.62156 7.92673 6.48497 7.55798 6.49528C7.18924 6.50559 6.8397 6.66197 6.58625 6.93C6.3328 7.19804 6.19621 7.55578 6.20653 7.92452C6.21684 8.29326 6.37322 8.64281 6.64125 8.89625L8.62125 10.8075C8.75412 10.9358 8.91148 11.036 9.08394 11.1022C9.2564 11.1683 9.44041 11.199 9.625 11.1925C9.81022 11.1918 9.99339 11.1537 10.1635 11.0804C10.3336 11.0072 10.4872 10.9003 10.615 10.7663C10.8711 10.5086 11.0148 10.1601 11.0148 9.79688C11.0148 9.43362 10.8711 9.08513 10.615 8.8275L8.5525 6.875Z" fill="#fff"/>
<path d="M23.375 11.1925C23.729 11.1911 24.0689 11.0532 24.3238 10.8075L26.3037 8.89625C26.5453 8.64387 26.6817 8.30902 26.6853 7.9597C26.6889 7.61038 26.5594 7.27279 26.3231 7.01549C26.0868 6.75819 25.7614 6.60048 25.4131 6.57438C25.0647 6.54829 24.7195 6.65578 24.4475 6.875L22.4675 8.8275C22.2114 9.08513 22.0677 9.43362 22.0677 9.79688C22.0677 10.1601 22.2114 10.5086 22.4675 10.7663C22.7056 11.0175 23.0296 11.1697 23.375 11.1925Z" fill="#fff"/>
<path d="M16.5 24.75C16.1353 24.75 15.7856 24.8949 15.5277 25.1527C15.2699 25.4106 15.125 25.7603 15.125 26.125V28.875C15.125 29.2397 15.2699 29.5894 15.5277 29.8473C15.7856 30.1051 16.1353 30.25 16.5 30.25C16.8647 30.25 17.2144 30.1051 17.4723 29.8473C17.7301 29.5894 17.875 29.2397 17.875 28.875V26.125C17.875 25.7603 17.7301 25.4106 17.4723 25.1527C17.2144 24.8949 16.8647 24.75 16.5 24.75Z" fill="#fff"/>
<path d="M24.3787 22.1925C24.1162 21.9391 23.7637 21.8003 23.3988 21.8067C23.0339 21.8132 22.6866 21.9643 22.4331 22.2269C22.1797 22.4894 22.0409 22.8419 22.0474 23.2068C22.0538 23.5717 22.2049 23.9191 22.4675 24.1725L24.4475 26.125C24.7024 26.3707 25.0422 26.5086 25.3962 26.51C25.5805 26.5111 25.7631 26.4751 25.9331 26.4043C26.1032 26.3334 26.2573 26.2291 26.3863 26.0975C26.5151 25.9697 26.6174 25.8176 26.6872 25.65C26.757 25.4825 26.793 25.3028 26.793 25.1212C26.793 24.9397 26.757 24.76 26.6872 24.5925C26.6174 24.4249 26.5151 24.2728 26.3863 24.145L24.3787 22.1925Z" fill="#fff"/>
<path d="M8.62125 22.1925L6.64125 24.1038C6.51237 24.2316 6.41008 24.3837 6.34027 24.5512C6.27047 24.7188 6.23453 24.8985 6.23453 25.08C6.23453 25.2615 6.27047 25.4412 6.34027 25.6088C6.41008 25.7764 6.51237 25.9284 6.64125 26.0563C6.77021 26.1878 6.92431 26.2922 7.09437 26.363C7.26444 26.4339 7.44701 26.4698 7.63125 26.4688C7.97021 26.4716 8.29829 26.3492 8.5525 26.125L10.5325 24.2138C10.7951 23.9603 10.9462 23.6129 10.9526 23.2481C10.9591 22.8832 10.8203 22.5307 10.5669 22.2681C10.3134 22.0056 9.96606 21.8544 9.60118 21.848C9.23631 21.8415 8.88381 21.9803 8.62125 22.2338V22.1925Z" fill="#fff"/>
<path d="M16.5 11C15.4122 11 14.3488 11.3226 13.4444 11.9269C12.5399 12.5313 11.8349 13.3902 11.4187 14.3952C11.0024 15.4002 10.8935 16.5061 11.1057 17.573C11.3179 18.6399 11.8417 19.6199 12.6109 20.3891C13.3801 21.1583 14.3601 21.6821 15.427 21.8943C16.4939 22.1065 17.5998 21.9976 18.6048 21.5813C19.6098 21.1651 20.4687 20.4601 21.0731 19.5556C21.6774 18.6512 22 17.5878 22 16.5C22 15.0413 21.4205 13.6424 20.3891 12.6109C19.3576 11.5795 17.9587 11 16.5 11Z" fill="#fff"/>
</svg>
