<svg width="128" height="192" viewBox="0 0 128 192" fill="none" xmlns="http://www.w3.org/2000/svg">
<path d="M0 0L30.2912 73.5644C12.141 84.8521 0 104.924 0 127.822C0 163.059 28.6677 191.733 63.9111 191.733C99.1546 191.733 127.822 163.059 127.822 127.822C127.822 104.924 115.681 84.8521 97.5311 73.5644L127.822 0H112.469L84.6878 67.4479C80.0209 65.837 75.1374 64.717 70.0554 64.2301L96.4908 0H81.1372L54.4937 64.6878C50.579 65.2696 46.7856 66.1876 43.1345 67.4479L15.3537 0H0ZM31.3314 0L49.3758 43.8418L57.0596 25.1872L46.6851 0H31.3314ZM63.9111 78.1136C91.3148 78.1136 113.62 100.412 113.62 127.822C113.62 155.233 91.3148 177.531 63.9111 177.531C36.5075 177.531 14.2025 155.233 14.2025 127.822C14.2025 100.412 36.5075 78.1136 63.9111 78.1136ZM63.9111 100.569L55.6171 119.168L35.5062 121.373L50.5547 134.896L46.3245 154.854L63.9111 144.702L81.4978 154.854L77.2676 134.896L92.3161 121.373L72.2052 119.168L63.9111 100.569Z" fill="#6f95ff"/>
</svg>
