<svg width="129" height="129" viewBox="0 0 129 129" fill="none" xmlns="http://www.w3.org/2000/svg">
<path d="M74.4453 101.734C73.6496 101.737 72.8634 101.561 72.1445 101.22C71.4257 100.879 70.7923 100.381 70.291 99.7636L44.5668 67.808C43.7835 66.855 43.3552 65.6596 43.3552 64.426C43.3552 63.1924 43.7835 61.997 44.5668 61.0441L71.1965 29.0885C72.1005 28.0009 73.3995 27.3169 74.8078 27.187C76.2161 27.0572 77.6184 27.4921 78.706 28.3961C79.7937 29.3001 80.4776 30.5992 80.6075 32.0075C80.7373 33.4158 80.3024 34.818 79.3984 35.9057L55.5915 64.4527L78.5995 92.9996C79.2508 93.7814 79.6645 94.7334 79.7916 95.7429C79.9188 96.7524 79.7542 97.7772 79.3171 98.6961C78.8801 99.615 78.189 100.389 77.3256 100.928C76.4622 101.466 75.4627 101.746 74.4453 101.734Z" fill="#231F20"/>
</svg>
