<svg width="129" height="92" viewBox="0 0 129 92" fill="none" xmlns="http://www.w3.org/2000/svg">
<path d="M23.6193 0.541504C11.0169 0.541504 0.797119 15.8689 0.797119 34.7747V37.0569L5.36155 41.6214V87.2657L5.2657 89.4657C7.46093 91.1511 10.1939 91.9813 12.9557 91.8016C15.7174 91.6219 18.3198 90.4446 20.2781 88.4889L39.7545 69.0079H89.6437L109.12 88.4889C111.08 90.4444 113.684 91.6208 116.447 91.7989C119.209 91.9769 121.943 91.1444 124.137 89.4566L124.037 87.2657V41.6214L128.601 37.0569V34.7747C128.601 15.8689 118.381 0.541504 105.779 0.541504H23.6193Z" fill="url(#paint0_linear_101_65)"/>
<path d="M119.472 27.9281C119.472 32.7703 117.548 37.4142 114.125 40.8382C110.701 44.2622 106.057 46.1858 101.214 46.1858C96.3721 46.1858 91.7282 44.2622 88.3042 40.8382C84.8802 37.4142 82.9566 32.7703 82.9566 27.9281C82.9566 23.0858 84.8802 18.4419 88.3042 15.0179C91.7282 11.5939 96.3721 9.67035 101.214 9.67035C106.057 9.67035 110.701 11.5939 114.125 15.0179C117.548 18.4419 119.472 23.0858 119.472 27.9281ZM46.4412 27.9281C46.4412 32.7703 44.5176 37.4142 41.0937 40.8382C37.6697 44.2622 33.0257 46.1858 28.1835 46.1858C23.3412 46.1858 18.6973 44.2622 15.2733 40.8382C11.8494 37.4142 9.92578 32.7703 9.92578 27.9281C9.92578 23.0858 11.8494 18.4419 15.2733 15.0179C18.6973 11.5939 23.3412 9.67035 28.1835 9.67035C33.0257 9.67035 37.6697 11.5939 41.0937 15.0179C44.5176 18.4419 46.4412 23.0858 46.4412 27.9281Z" fill="#6F7881"/>
<path d="M28.1835 41.6214C35.7461 41.6214 41.8768 35.4907 41.8768 27.9281C41.8768 20.3655 35.7461 14.2348 28.1835 14.2348C20.6209 14.2348 14.4902 20.3655 14.4902 27.9281C14.4902 35.4907 20.6209 41.6214 28.1835 41.6214Z" fill="url(#paint1_linear_101_65)"/>
<path d="M28.1835 14.2348C26.628 14.2384 25.0844 14.5069 23.6191 15.029V23.3637H15.2936C14.7684 24.8284 14.4967 26.372 14.4902 27.9281C14.4938 29.4836 14.7624 31.0272 15.2844 32.4925H23.6191V40.818C25.0839 41.3432 26.6275 41.6149 28.1835 41.6214C29.7391 41.6178 31.2826 41.3492 32.7479 40.8272V32.4925H41.0735C41.5987 31.0277 41.8703 29.4842 41.8768 27.9281C41.8732 26.3725 41.6047 24.829 41.0826 23.3637H32.7479V15.0381C31.2832 14.513 29.7396 14.2413 28.1835 14.2348Z" fill="url(#paint2_linear_101_65)"/>
<path d="M101.215 13.7783C101.875 13.7783 102.527 13.9082 103.137 14.1605C103.746 14.4128 104.299 14.7827 104.765 15.2489C105.232 15.7151 105.602 16.2686 105.854 16.8778C106.106 17.4869 106.236 18.1398 106.236 18.7992C106.236 19.4585 106.106 20.1114 105.854 20.7206C105.602 21.3298 105.232 21.8833 104.765 22.3495C104.299 22.8157 103.746 23.1856 103.137 23.4379C102.527 23.6902 101.875 23.8201 101.215 23.8201C99.8836 23.8201 98.6065 23.2911 97.6649 22.3495C96.7233 21.4079 96.1943 20.1308 96.1943 18.7992C96.1943 17.4676 96.7233 16.1905 97.6649 15.2489C98.6065 14.3073 99.8836 13.7783 101.215 13.7783Z" fill="url(#paint3_linear_101_65)"/>
<path d="M110.344 22.9072C111.675 22.9072 112.953 23.4361 113.894 24.3777C114.836 25.3193 115.365 26.5964 115.365 27.928C115.365 29.2597 114.836 30.5367 113.894 31.4783C112.953 32.4199 111.675 32.9489 110.344 32.9489C109.685 32.9489 109.032 32.819 108.422 32.5667C107.813 32.3144 107.26 31.9446 106.794 31.4783C106.327 31.0121 105.958 30.4586 105.705 29.8494C105.453 29.2403 105.323 28.5874 105.323 27.928C105.323 27.2687 105.453 26.6158 105.705 26.0066C105.958 25.3975 106.327 24.844 106.794 24.3777C107.26 23.9115 107.813 23.5417 108.422 23.2894C109.032 23.037 109.685 22.9072 110.344 22.9072Z" fill="url(#paint4_linear_101_65)"/>
<path d="M101.215 32.036C101.875 32.036 102.527 32.1659 103.137 32.4182C103.746 32.6706 104.299 33.0404 104.765 33.5066C105.232 33.9729 105.602 34.5263 105.854 35.1355C106.106 35.7447 106.236 36.3976 106.236 37.0569C106.236 37.7163 106.106 38.3692 105.854 38.9783C105.602 39.5875 105.232 40.141 104.765 40.6072C104.299 41.0734 103.746 41.4433 103.137 41.6956C102.527 41.9479 101.875 42.0778 101.215 42.0778C99.8836 42.0778 98.6065 41.5488 97.6649 40.6072C96.7233 39.6656 96.1943 38.3885 96.1943 37.0569C96.1943 35.7253 96.7233 34.4482 97.6649 33.5066C98.6065 32.565 99.8836 32.036 101.215 32.036Z" fill="url(#paint5_linear_101_65)"/>
<path d="M92.0863 22.9072C93.4179 22.9072 94.695 23.4361 95.6366 24.3777C96.5782 25.3193 97.1072 26.5964 97.1072 27.928C97.1072 29.2597 96.5782 30.5367 95.6366 31.4783C94.695 32.4199 93.4179 32.9489 92.0863 32.9489C90.7547 32.9489 89.4776 32.4199 88.536 31.4783C87.5944 30.5367 87.0654 29.2597 87.0654 27.928C87.0654 26.5964 87.5944 25.3193 88.536 24.3777C89.4776 23.4361 90.7547 22.9072 92.0863 22.9072Z" fill="url(#paint6_linear_101_65)"/>
<path opacity="0.2" d="M39.7544 64.4435L20.278 83.9245C18.3332 85.8642 15.7541 87.0373 13.014 87.2285C10.2739 87.4196 7.55677 86.616 5.36148 84.9652V87.2657L5.26562 89.4657C7.46086 91.1511 10.1938 91.9813 12.9556 91.8016C15.7174 91.6219 18.3197 90.4446 20.278 88.4889L39.7544 69.0079H89.6437L109.12 88.4889C111.08 90.4445 113.684 91.6208 116.446 91.7989C119.209 91.9769 121.943 91.1444 124.137 89.4566L124.037 87.2657V84.9743C121.84 86.624 119.123 87.426 116.382 87.2332C113.642 87.0404 111.064 85.8655 109.12 83.9245L89.6437 64.4435H39.7544Z" fill="#292C2F"/>
<path d="M0.797215 37.0569C3.21834 37.0569 5.5403 38.9805 7.25229 42.4045C8.96429 45.8285 9.92607 50.4724 9.92607 55.3147V73.5724L9.91694 73.5815V73.5998C9.91577 76.8381 9.48398 80.0175 8.66585 82.812C7.84771 85.6065 6.67267 87.9155 5.26123 89.5022C3.87063 88.4373 2.74385 87.0666 1.96815 85.4962C1.19246 83.9258 0.788676 82.1979 0.788086 80.4464C0.790617 80.384 0.79366 80.3216 0.797215 80.2593V55.3147V37.0569Z" fill="url(#paint7_radial_101_65)"/>
<path d="M96.6501 59.8791C96.6501 63.5108 95.2074 66.9937 92.6394 69.5617C90.0714 72.1297 86.5884 73.5724 82.9568 73.5724C79.3251 73.5724 75.8421 72.1297 73.2741 69.5617C70.7062 66.9937 69.2635 63.5108 69.2635 59.8791C69.2635 56.2474 70.7062 52.7644 73.2741 50.1965C75.8421 47.6285 79.3251 46.1858 82.9568 46.1858C86.5884 46.1858 90.0714 47.6285 92.6394 50.1965C95.2074 52.7644 96.6501 56.2474 96.6501 59.8791ZM60.1346 59.8791C60.1346 63.5108 58.6919 66.9937 56.124 69.5617C53.556 72.1297 50.073 73.5724 46.4413 73.5724C42.8096 73.5724 39.3267 72.1297 36.7587 69.5617C34.1907 66.9937 32.748 63.5108 32.748 59.8791C32.748 56.2474 34.1907 52.7644 36.7587 50.1965C39.3267 47.6285 42.8096 46.1858 46.4413 46.1858C50.073 46.1858 53.556 47.6285 56.124 50.1965C58.6919 52.7644 60.1346 56.2474 60.1346 59.8791Z" fill="url(#paint8_linear_101_65)"/>
<path d="M92.0856 59.8791C92.0856 62.3002 91.1239 64.6222 89.4119 66.3341C87.6999 68.0461 85.3779 69.0079 82.9568 69.0079C80.5357 69.0079 78.2137 68.0461 76.5017 66.3341C74.7897 64.6222 73.8279 62.3002 73.8279 59.8791C73.8279 57.4579 74.7897 55.136 76.5017 53.424C78.2137 51.712 80.5357 50.7502 82.9568 50.7502C85.3779 50.7502 87.6999 51.712 89.4119 53.424C91.1239 55.136 92.0856 57.4579 92.0856 59.8791ZM55.5702 59.8791C55.5702 62.3002 54.6084 64.6222 52.8964 66.3341C51.1844 68.0461 48.8625 69.0079 46.4414 69.0079C44.0202 69.0079 41.6983 68.0461 39.9863 66.3341C38.2743 64.6222 37.3125 62.3002 37.3125 59.8791C37.3125 57.4579 38.2743 55.136 39.9863 53.424C41.6983 51.712 44.0202 50.7502 46.4414 50.7502C48.8625 50.7502 51.1844 51.712 52.8964 53.424C54.6084 55.136 55.5702 57.4579 55.5702 59.8791Z" fill="url(#paint9_linear_101_65)"/>
<path d="M128.601 37.0569C126.18 37.0569 123.858 38.9805 122.146 42.4045C120.434 45.8285 119.472 50.4724 119.472 55.3147V73.5724L119.481 73.5815V73.5998C119.482 76.8381 119.914 80.0175 120.732 82.812C121.551 85.6065 122.726 87.9155 124.137 89.5022C125.528 88.4373 126.654 87.0666 127.43 85.4962C128.206 83.9258 128.61 82.1979 128.61 80.4464C128.608 80.384 128.605 80.3216 128.601 80.2593V55.3147V37.0569Z" fill="url(#paint10_radial_101_65)"/>
<defs>
<linearGradient id="paint0_linear_101_65" x1="64.6991" y1="91.8301" x2="64.6991" y2="0.541504" gradientUnits="userSpaceOnUse">
<stop stop-color="#535A61"/>
<stop offset="0.25" stop-color="#6F7881"/>
<stop offset="1" stop-color="#ADB6BB"/>
</linearGradient>
<linearGradient id="paint1_linear_101_65" x1="19.0547" y1="41.6214" x2="19.0547" y2="14.2348" gradientUnits="userSpaceOnUse">
<stop stop-color="#6F7881"/>
<stop offset="1" stop-color="#B0B4B8"/>
</linearGradient>
<linearGradient id="paint2_linear_101_65" x1="28.1835" y1="41.6214" x2="28.1835" y2="14.2348" gradientUnits="userSpaceOnUse">
<stop stop-color="#171E25"/>
<stop offset="1" stop-color="#333C45"/>
</linearGradient>
<linearGradient id="paint3_linear_101_65" x1="101.215" y1="23.8201" x2="101.215" y2="13.7783" gradientUnits="userSpaceOnUse">
<stop stop-color="#FDAE23"/>
<stop offset="1" stop-color="#FDCA73"/>
</linearGradient>
<linearGradient id="paint4_linear_101_65" x1="110.344" y1="32.9489" x2="110.344" y2="22.9072" gradientUnits="userSpaceOnUse">
<stop stop-color="#DA4453"/>
<stop offset="1" stop-color="#E47681"/>
</linearGradient>
<linearGradient id="paint5_linear_101_65" x1="101.215" y1="42.0778" x2="101.215" y2="32.036" gradientUnits="userSpaceOnUse">
<stop stop-color="#27AB5F"/>
<stop offset="1" stop-color="#4BD786"/>
</linearGradient>
<linearGradient id="paint6_linear_101_65" x1="92.0863" y1="32.9489" x2="92.0863" y2="22.9072" gradientUnits="userSpaceOnUse">
<stop stop-color="#0C85DC"/>
<stop offset="1" stop-color="#43AAF5"/>
</linearGradient>
<radialGradient id="paint7_radial_101_65" cx="0" cy="0" r="1" gradientUnits="userSpaceOnUse" gradientTransform="translate(0.799117 91.8346) scale(9.12885 54.7731)">
<stop stop-color="#0F1419"/>
<stop offset="1" stop-color="#22282E"/>
</radialGradient>
<linearGradient id="paint8_linear_101_65" x1="78.3923" y1="73.5724" x2="78.3923" y2="46.1858" gradientUnits="userSpaceOnUse">
<stop stop-color="#6F7881"/>
<stop offset="1" stop-color="#B0B4B8"/>
</linearGradient>
<linearGradient id="paint9_linear_101_65" x1="78.3924" y1="69.0079" x2="78.3924" y2="50.7502" gradientUnits="userSpaceOnUse">
<stop stop-color="#171E25"/>
<stop offset="1" stop-color="#333C45"/>
</linearGradient>
<radialGradient id="paint10_radial_101_65" cx="0" cy="0" r="1" gradientUnits="userSpaceOnUse" gradientTransform="translate(128.601 91.8392) rotate(180) scale(9.12885 54.7731)">
<stop stop-color="#0F1419"/>
<stop offset="1" stop-color="#22282E"/>
</radialGradient>
</defs>
</svg>
