<svg width="129" height="72" viewBox="0 0 129 72" fill="none" xmlns="http://www.w3.org/2000/svg">
<path d="M128.61 64.4526C128.61 68.3725 125.429 71.5539 121.509 71.5539H7.88932C3.96944 71.5539 0.788086 68.3725 0.788086 64.4526V7.64274C0.788086 3.72286 3.96944 0.541504 7.88932 0.541504H121.509C125.429 0.541504 128.61 3.72286 128.61 7.64274V64.4526Z" fill="#99AAB5"/>
<path d="M20.3164 32.4971C20.3164 34.4606 18.7257 36.0477 16.7658 36.0477H13.2152C11.2552 36.0477 9.66455 34.4606 9.66455 32.4971V28.9465C9.66455 26.983 11.2552 25.3959 13.2152 25.3959H16.7658C18.7257 25.3959 20.3164 26.983 20.3164 28.9465V32.4971ZM34.5189 32.4971C34.5189 34.4606 32.9282 36.0477 30.9683 36.0477H27.4176C25.4577 36.0477 23.867 34.4606 23.867 32.4971V28.9465C23.867 26.983 25.4577 25.3959 27.4176 25.3959H30.9683C32.9282 25.3959 34.5189 26.983 34.5189 28.9465V32.4971ZM48.7214 32.4971C48.7214 34.4606 47.1307 36.0477 45.1707 36.0477H41.6201C39.6602 36.0477 38.0695 34.4606 38.0695 32.4971V28.9465C38.0695 26.983 39.6602 25.3959 41.6201 25.3959H45.1707C47.1307 25.3959 48.7214 26.983 48.7214 28.9465V32.4971ZM62.9238 32.4971C62.9238 34.4606 61.3332 36.0477 59.3732 36.0477H55.8226C53.8627 36.0477 52.272 34.4606 52.272 32.4971V28.9465C52.272 26.983 53.8627 25.3959 55.8226 25.3959H59.3732C61.3332 25.3959 62.9238 26.983 62.9238 28.9465V32.4971ZM77.1263 32.4971C77.1263 34.4606 75.5392 36.0477 73.5757 36.0477H70.0251C68.0616 36.0477 66.4745 34.4606 66.4745 32.4971V28.9465C66.4745 26.983 68.0616 25.3959 70.0251 25.3959H73.5757C75.5392 25.3959 77.1263 26.983 77.1263 28.9465V32.4971ZM91.3288 32.4971C91.3288 34.4606 89.7417 36.0477 87.7782 36.0477H84.2275C82.2641 36.0477 80.6769 34.4606 80.6769 32.4971V28.9465C80.6769 26.983 82.2641 25.3959 84.2275 25.3959H87.7782C89.7417 25.3959 91.3288 26.983 91.3288 28.9465V32.4971ZM105.531 32.4971C105.531 34.4606 103.944 36.0477 101.981 36.0477H98.43C96.4665 36.0477 94.8794 34.4606 94.8794 32.4971V28.9465C94.8794 26.983 96.4665 25.3959 98.43 25.3959H101.981C103.944 25.3959 105.531 26.983 105.531 28.9465V32.4971ZM119.734 32.4971C119.734 34.4606 118.147 36.0477 116.183 36.0477H112.632C110.669 36.0477 109.082 34.4606 109.082 32.4971V28.9465C109.082 26.983 110.669 25.3959 112.632 25.3959H116.183C118.147 25.3959 119.734 26.983 119.734 28.9465V32.4971ZM27.4176 46.6996C27.4176 48.6631 25.827 50.2502 23.867 50.2502H20.3164C18.3565 50.2502 16.7658 48.6631 16.7658 46.6996V43.149C16.7658 41.1855 18.3565 39.5983 20.3164 39.5983H23.867C25.827 39.5983 27.4176 41.1855 27.4176 43.149V46.6996ZM41.6201 46.6996C41.6201 48.6631 40.0294 50.2502 38.0695 50.2502H34.5189C32.5589 50.2502 30.9683 48.6631 30.9683 46.6996V43.149C30.9683 41.1855 32.5589 39.5983 34.5189 39.5983H38.0695C40.0294 39.5983 41.6201 41.1855 41.6201 43.149V46.6996ZM55.8226 46.6996C55.8226 48.6631 54.2319 50.2502 52.272 50.2502H48.7214C46.7614 50.2502 45.1707 48.6631 45.1707 46.6996V43.149C45.1707 41.1855 46.7614 39.5983 48.7214 39.5983H52.272C54.2319 39.5983 55.8226 41.1855 55.8226 43.149V46.6996ZM70.0251 46.6996C70.0251 48.6631 68.4379 50.2502 66.4745 50.2502H62.9238C60.9639 50.2502 59.3732 48.6631 59.3732 46.6996V43.149C59.3732 41.1855 60.9639 39.5983 62.9238 39.5983H66.4745C68.4379 39.5983 70.0251 41.1855 70.0251 43.149V46.6996ZM84.2275 46.6996C84.2275 48.6631 82.6404 50.2502 80.6769 50.2502H77.1263C75.1628 50.2502 73.5757 48.6631 73.5757 46.6996V43.149C73.5757 41.1855 75.1628 39.5983 77.1263 39.5983H80.6769C82.6404 39.5983 84.2275 41.1855 84.2275 43.149V46.6996ZM98.43 46.6996C98.43 48.6631 96.8429 50.2502 94.8794 50.2502H91.3288C89.3653 50.2502 87.7782 48.6631 87.7782 46.6996V43.149C87.7782 41.1855 89.3653 39.5983 91.3288 39.5983H94.8794C96.8429 39.5983 98.43 41.1855 98.43 43.149V46.6996ZM112.632 46.6996C112.632 48.6631 111.045 50.2502 109.082 50.2502H105.531C103.568 50.2502 101.981 48.6631 101.981 46.6996V43.149C101.981 41.1855 103.568 39.5983 105.531 39.5983H109.082C111.045 39.5983 112.632 41.1855 112.632 43.149V46.6996ZM36.2942 60.902C36.2942 62.8655 34.7035 64.4527 32.7436 64.4527H25.6423C23.6824 64.4527 22.0917 62.8655 22.0917 60.902V57.3514C22.0917 55.3879 23.6824 53.8008 25.6423 53.8008H32.7436C34.7035 53.8008 36.2942 55.3879 36.2942 57.3514V60.902ZM107.307 60.902C107.307 62.8655 105.719 64.4527 103.756 64.4527H96.6547C94.6912 64.4527 93.1041 62.8655 93.1041 60.902V57.3514C93.1041 55.3879 94.6912 53.8008 96.6547 53.8008H103.756C105.719 53.8008 107.307 55.3879 107.307 57.3514V60.902ZM89.5535 60.902C89.5535 62.8655 87.9663 64.4527 86.0029 64.4527H43.3954C41.4355 64.4527 39.8448 62.8655 39.8448 60.902V57.3514C39.8448 55.3879 41.4355 53.8008 43.3954 53.8008H86.0029C87.9663 53.8008 89.5535 55.3879 89.5535 57.3514V60.902ZM20.3164 11.4881C20.3164 13.448 18.7257 15.0387 16.7658 15.0387H13.2152C11.2552 15.0387 9.66455 13.448 9.66455 11.4881C9.66455 9.52815 11.2552 7.93747 13.2152 7.93747H16.7658C18.7257 7.93747 20.3164 9.52815 20.3164 11.4881ZM34.5189 11.4881C34.5189 13.448 32.9282 15.0387 30.9683 15.0387H27.4176C25.4577 15.0387 23.867 13.448 23.867 11.4881C23.867 9.52815 25.4577 7.93747 27.4176 7.93747H30.9683C32.9282 7.93747 34.5189 9.52815 34.5189 11.4881ZM48.7214 11.4881C48.7214 13.448 47.1307 15.0387 45.1707 15.0387H41.6201C39.6602 15.0387 38.0695 13.448 38.0695 11.4881C38.0695 9.52815 39.6602 7.93747 41.6201 7.93747H45.1707C47.1307 7.93747 48.7214 9.52815 48.7214 11.4881ZM62.9238 11.4881C62.9238 13.448 61.3332 15.0387 59.3732 15.0387H55.8226C53.8627 15.0387 52.272 13.448 52.272 11.4881C52.272 9.52815 53.8627 7.93747 55.8226 7.93747H59.3732C61.3332 7.93747 62.9238 9.52815 62.9238 11.4881ZM77.1263 11.4881C77.1263 13.448 75.5392 15.0387 73.5757 15.0387H70.0251C68.0616 15.0387 66.4745 13.448 66.4745 11.4881C66.4745 9.52815 68.0616 7.93747 70.0251 7.93747H73.5757C75.5392 7.93747 77.1263 9.52815 77.1263 11.4881ZM91.3288 11.4881C91.3288 13.448 89.7417 15.0387 87.7782 15.0387H84.2275C82.2641 15.0387 80.6769 13.448 80.6769 11.4881C80.6769 9.52815 82.2641 7.93747 84.2275 7.93747H87.7782C89.7417 7.93747 91.3288 9.52815 91.3288 11.4881ZM105.531 11.4881C105.531 13.448 103.944 15.0387 101.981 15.0387H98.43C96.4665 15.0387 94.8794 13.448 94.8794 11.4881C94.8794 9.52815 96.4665 7.93747 98.43 7.93747H101.981C103.944 7.93747 105.531 9.52815 105.531 11.4881ZM119.734 11.4881C119.734 13.448 118.147 15.0387 116.183 15.0387H112.632C110.669 15.0387 109.082 13.448 109.082 11.4881C109.082 9.52815 110.669 7.93747 112.632 7.93747H116.183C118.147 7.93747 119.734 9.52815 119.734 11.4881Z" fill="#292F33"/>
</svg>
