<svg width="139" height="124" viewBox="0 0 139 124" fill="none" xmlns="http://www.w3.org/2000/svg">
<path d="M118.862 30.1178H20.5368C12.3913 30.1178 5.78809 36.721 5.78809 44.8665V103.861C5.78809 112.007 12.3913 118.61 20.5368 118.61H118.862C127.007 118.61 133.61 112.007 133.61 103.861V44.8665C133.61 36.721 127.007 30.1178 118.862 30.1178Z" stroke="#6f95ff" stroke-width="9.83248" stroke-linejoin="round"/>
<path d="M117.436 30.1178V20.8998C117.435 18.639 116.935 16.4062 115.972 14.3607C115.009 12.3152 113.607 10.5075 111.865 9.0665C110.123 7.6255 108.084 6.58676 105.894 6.02439C103.704 5.46202 101.418 5.38987 99.1967 5.8131L18.2753 19.6247C14.7612 20.2943 11.591 22.1694 9.31133 24.9263C7.03171 27.6833 5.78566 31.1494 5.78809 34.7267V49.7827" stroke="#6f95ff" stroke-width="9.83248" stroke-linejoin="round"/>
<path d="M104.113 84.1964C102.168 84.1964 100.267 83.6197 98.6504 82.5393C97.0334 81.4589 95.7732 79.9233 95.029 78.1267C94.2848 76.33 94.0901 74.353 94.4695 72.4457C94.8488 70.5384 95.7853 68.7864 97.1604 67.4113C98.5355 66.0362 100.287 65.0998 102.195 64.7204C104.102 64.341 106.079 64.5357 107.876 65.2799C109.672 66.0241 111.208 67.2843 112.288 68.9013C113.369 70.5182 113.945 72.4192 113.945 74.3639C113.945 76.9717 112.91 79.4726 111.066 81.3165C109.222 83.1605 106.721 84.1964 104.113 84.1964Z" fill="#6f95ff"/>
</svg>
