<svg width="128" height="128" viewBox="0 0 128 128" fill="none" xmlns="http://www.w3.org/2000/svg">
<path d="M63.9113 39.9445C68.3234 39.9445 71.9001 36.3677 71.9001 31.9556C71.9001 27.5434 68.3234 23.9667 63.9113 23.9667C59.4991 23.9667 55.9224 27.5434 55.9224 31.9556C55.9224 36.3677 59.4991 39.9445 63.9113 39.9445Z" fill="black"/>
<path d="M63.9113 71.9C68.3234 71.9 71.9001 68.3233 71.9001 63.9111C71.9001 59.499 68.3234 55.9222 63.9113 55.9222C59.4991 55.9222 55.9224 59.499 55.9224 63.9111C55.9224 68.3233 59.4991 71.9 63.9113 71.9Z" fill="black"/>
<path d="M63.9113 103.856C68.3234 103.856 71.9001 100.279 71.9001 95.8667C71.9001 91.4546 68.3234 87.8778 63.9113 87.8778C59.4991 87.8778 55.9224 91.4546 55.9224 95.8667C55.9224 100.279 59.4991 103.856 63.9113 103.856Z" fill="black"/>
</svg>
