<svg width="123" height="123" viewBox="0 0 123 123" fill="none" xmlns="http://www.w3.org/2000/svg">
<path d="M97.2605 102.405H25.6283C24.2713 102.405 22.9699 102.944 22.0103 103.903C21.0508 104.863 20.5117 106.164 20.5117 107.521C20.5117 108.878 21.0508 110.18 22.0103 111.139C22.9699 112.099 24.2713 112.638 25.6283 112.638H97.2605C98.6175 112.638 99.9189 112.099 100.878 111.139C101.838 110.18 102.377 108.878 102.377 107.521C102.377 106.164 101.838 104.863 100.878 103.903C99.9189 102.944 98.6175 102.405 97.2605 102.405Z" fill="#E34F74"/>
<path d="M25.6286 92.1717H26.0891L47.4252 90.2274C49.7624 89.9946 51.9484 88.9648 53.6163 87.3109L99.6655 41.2617C101.453 39.3735 102.419 36.8538 102.352 34.2547C102.284 31.6556 101.19 29.1892 99.3074 27.3958L85.2879 13.3763C83.4582 11.6576 81.0605 10.6715 78.5511 10.6054C76.0416 10.5394 73.5954 11.3981 71.6778 13.0182L25.6286 59.0674C23.9747 60.7352 22.9449 62.9212 22.7121 65.2585L20.512 86.5946C20.4431 87.344 20.5403 88.0994 20.7968 88.8069C21.0533 89.5145 21.4627 90.1567 21.9958 90.6879C22.4739 91.1621 23.0409 91.5373 23.6643 91.7919C24.2877 92.0465 24.9552 92.1756 25.6286 92.1717ZM78.1759 20.5395L92.1441 34.5078L81.911 44.4851L68.1985 30.7727L78.1759 20.5395ZM32.6383 66.1283L61.4446 37.5266L75.2594 51.3414L46.6066 79.9942L31.2568 81.4269L32.6383 66.1283Z" fill="#E34F74"/>
</svg>
