<svg width="129" height="124" viewBox="0 0 129 124" fill="none" xmlns="http://www.w3.org/2000/svg">
<path d="M61.1885 123.645C94.5467 123.645 121.589 96.6027 121.589 63.2446C121.589 29.8862 94.5467 2.84412 61.1885 2.84412C27.8304 2.84412 0.788086 29.8862 0.788086 63.2446C0.788086 96.6027 27.8304 123.645 61.1885 123.645Z" fill="url(#paint0_radial_101_46)"/>
<path opacity="0.5" d="M61.1885 123.645C94.5467 123.645 121.589 96.6027 121.589 63.2446C121.589 29.8862 94.5467 2.84412 61.1885 2.84412C27.8304 2.84412 0.788086 29.8862 0.788086 63.2446C0.788086 96.6027 27.8304 123.645 61.1885 123.645Z" fill="url(#paint1_radial_101_46)"/>
<path opacity="0.24" d="M61.1885 123.645C94.5467 123.645 121.589 96.6027 121.589 63.2446C121.589 29.8862 94.5467 2.84412 61.1885 2.84412C27.8304 2.84412 0.788086 29.8862 0.788086 63.2446C0.788086 96.6027 27.8304 123.645 61.1885 123.645Z" fill="url(#paint2_radial_101_46)"/>
<path opacity="0.24" d="M61.1885 123.645C94.5467 123.645 121.589 96.6027 121.589 63.2446C121.589 29.8862 94.5467 2.84412 61.1885 2.84412C27.8304 2.84412 0.788086 29.8862 0.788086 63.2446C0.788086 96.6027 27.8304 123.645 61.1885 123.645Z" fill="url(#paint3_radial_101_46)"/>
<path d="M77.3462 36.366C77.3838 33.9501 80.0265 32.4778 84.5186 32.5533C88.3314 32.6288 96.712 34.856 102.374 42.3684C103.432 43.765 101.771 44.4823 100.751 43.5763C97.2406 40.5185 87.7652 36.4794 80.3283 37.1588C77.3462 37.423 77.3462 36.366 77.3462 36.366Z" fill="url(#paint4_linear_101_46)"/>
<path d="M36.0089 65.3581C36.0089 65.3581 25.9294 64.7164 22.8718 57.2042C22.6829 56.7133 22.5697 56.2226 22.5697 55.7319C22.5321 54.7126 23.438 53.6178 25.25 54.5239C36.4996 60.1864 42.7283 57.1287 47.4093 54.9768C49.2214 54.1464 50.9202 55.9584 50.4293 57.6194C50.2785 58.1101 50.203 58.6008 49.9386 59.0539C46.0882 66.0377 36.0089 65.3581 36.0089 65.3581Z" fill="url(#paint5_radial_101_46)"/>
<path opacity="0.16" d="M71.2685 38.2544H62.1327L72.5141 23.3052C73.0805 22.5124 73.1558 21.4555 72.7029 20.5872C72.2499 19.719 71.344 19.1527 70.3623 19.1527H57.6406C56.1682 19.1527 55.3755 20.323 55.3755 21.7952C55.3755 23.2675 56.1682 24.4376 57.6406 24.4376H65.3038L54.9224 39.3868C54.3562 40.1796 54.2807 41.2365 54.7338 42.1048C55.1868 42.9731 56.0927 43.5393 57.0744 43.5393H71.2306C72.7029 43.5393 73.4957 42.3692 73.4957 40.8968C73.4957 39.4245 72.7406 38.2544 71.2685 38.2544Z" fill="#612D5B"/>
<path d="M61.1882 104.393C67.6514 104.393 72.8909 100.15 72.8909 94.9173C72.8909 89.6841 67.6514 85.4419 61.1882 85.4419C54.7251 85.4419 49.4856 89.6841 49.4856 94.9173C49.4856 100.15 54.7251 104.393 61.1882 104.393Z" fill="url(#paint6_radial_101_46)"/>
<path d="M61.188 88.3487C66.2089 88.3487 70.5879 90.6515 72.8151 94.0112C72.2489 89.1791 67.2658 85.4419 61.188 85.4419C55.1103 85.4419 50.0894 89.217 49.561 94.0112C51.7883 90.6515 56.1673 88.3487 61.188 88.3487Z" fill="url(#paint7_linear_101_46)"/>
<path d="M49.6362 55.2039C49.0699 54.7508 48.2395 54.5621 47.4089 54.9395C42.7656 57.0914 36.499 60.1869 25.2494 54.4866C24.419 54.0712 23.7773 54.0712 23.3242 54.2978C27.439 59.4318 43.181 62.5273 49.6362 55.2039Z" fill="url(#paint8_linear_101_46)"/>
<path d="M86.3671 65.3589C86.3671 65.3589 96.4464 64.7171 99.5043 57.205C99.6929 56.7141 99.8063 56.2234 99.8063 55.7327C99.844 54.7134 98.938 53.6186 97.126 54.5247C85.8764 60.1871 79.6477 57.1295 74.9665 54.9776C73.1547 54.1471 71.4558 55.9592 71.9465 57.6202C72.0975 58.1109 72.173 58.6016 72.4374 59.0547C76.2878 66.0385 86.3671 65.3589 86.3671 65.3589Z" fill="url(#paint9_radial_101_46)"/>
<path d="M72.741 55.2039C73.3072 54.7508 74.1376 54.5621 74.9682 54.9395C79.6114 57.0914 85.8779 60.1869 97.1275 54.4866C97.9581 54.0712 98.5999 54.0712 99.0527 54.2978C94.9379 59.4318 79.1962 62.5273 72.741 55.2039Z" fill="url(#paint10_linear_101_46)"/>
<path d="M45.0317 36.3668C44.9938 33.9507 42.3514 32.4785 37.859 32.554C34.0463 32.6296 25.6659 34.8568 20.0032 42.3689C18.9463 43.7658 20.6073 44.483 21.6266 43.5771C25.1373 40.5192 34.6127 36.48 42.0494 37.1596C45.0317 37.4237 45.0317 36.3668 45.0317 36.3668Z" fill="url(#paint11_linear_101_46)"/>
<path opacity="0.16" d="M89.9921 10.1302L78.9313 26.0986C78.3273 26.9669 78.2517 28.0993 78.7427 29.0431C79.2334 29.9869 80.2148 30.5531 81.2341 30.5531H98.4482C99.996 30.5531 100.902 29.2697 100.902 27.7218C100.902 26.1741 99.996 24.8905 98.4482 24.8905H86.6324L94.8241 13.0746C93.2764 12.0177 91.6531 11.0363 89.9921 10.1302Z" fill="#612D5B"/>
<path opacity="0.24" d="M84.0641 7.33628C82.6296 6.73221 81.1196 6.20364 79.6475 5.71292C79.9872 6.6567 80.7799 7.33628 81.9124 7.33628H84.0641Z" fill="#612D5B"/>
<path opacity="0.16" d="M110.754 28.7407L106.3 35.1583C105.771 35.8755 105.583 36.8193 105.809 37.6876C106.149 39.0842 107.395 39.9903 108.754 39.9903H108.829C111.925 39.9903 114.605 40.33 117.474 41.2738C115.7 36.7814 113.435 32.5911 110.754 28.7407Z" fill="#612D5B"/>
<path d="M69.7572 42.4068H55.6008C54.6193 42.4068 53.7134 41.8784 53.2604 40.9723C52.8073 40.0664 52.8828 39.0471 53.449 38.2544L63.8304 23.3052H56.1672C54.6949 23.3052 53.9021 22.1351 53.9021 20.6627C53.9021 19.1904 54.6949 18.0203 56.1672 18.0203H68.8889C69.8704 18.0203 70.7765 18.5486 71.2296 19.4548C71.6824 20.3607 71.6069 21.38 71.0407 22.1727L60.6593 37.1219H69.7951C71.2672 37.1219 72.06 38.292 72.06 39.7644C72.06 41.2367 71.2296 42.4068 69.7572 42.4068Z" fill="url(#paint12_linear_101_46)"/>
<path d="M96.1837 29.4205H78.9696C77.9124 29.4205 76.931 28.8543 76.4779 27.9105C76.0249 26.9667 76.0627 25.8343 76.6668 24.966L89.6528 6.20406H79.6113C78.0635 6.20406 77.1575 4.92058 77.1575 3.37277C77.1575 1.82501 78.0635 0.541504 79.6113 0.541504H95.051C96.1082 0.541504 97.0896 1.10777 97.5426 2.05153C97.9955 2.99528 97.9578 4.12783 97.3538 4.9961L84.33 23.7578H96.1458C97.6937 23.7578 98.5996 25.0415 98.5996 26.5892C98.5996 28.137 97.7313 29.4205 96.1837 29.4205Z" fill="url(#paint13_linear_101_46)"/>
<path d="M125.968 38.443H106.489C105.357 38.443 104.337 37.8013 103.809 36.8199C103.28 35.8382 103.356 34.6303 103.998 33.6865L118.947 12.1689H107.244C105.583 12.1689 104.602 10.81 104.602 9.14894C104.602 7.48792 105.583 6.12894 107.244 6.12894H124.722C125.855 6.12894 126.874 6.77067 127.403 7.7521C127.931 8.73373 127.856 9.94169 127.214 10.8855L112.265 32.403H125.968C127.629 32.403 128.611 33.762 128.611 35.423C128.611 37.084 127.629 38.443 125.968 38.443Z" fill="url(#paint14_linear_101_46)"/>
<defs>
<radialGradient id="paint0_radial_101_46" cx="0" cy="0" r="1" gradientUnits="userSpaceOnUse" gradientTransform="translate(49.3045 38.7641) scale(72.8653 72.8653)">
<stop stop-color="#FFE030"/>
<stop offset="1" stop-color="#FFB92E"/>
</radialGradient>
<radialGradient id="paint1_radial_101_46" cx="0" cy="0" r="1" gradientUnits="userSpaceOnUse" gradientTransform="translate(49.3045 38.7641) scale(57.3263 57.3263)">
<stop stop-color="#FFEA5F"/>
<stop offset="1" stop-color="#FFBC47" stop-opacity="0"/>
</radialGradient>
<radialGradient id="paint2_radial_101_46" cx="0" cy="0" r="1" gradientUnits="userSpaceOnUse" gradientTransform="translate(28.2818 78.2685) rotate(-2.7703) scale(25.4058 20.1023)">
<stop stop-color="#FF4C00"/>
<stop offset="0.1542" stop-color="#FF4C00"/>
<stop offset="0.1795" stop-color="#FF4C00"/>
<stop offset="0.3996" stop-color="#FB4C0B" stop-opacity="0.7318"/>
<stop offset="0.7799" stop-color="#EF4B27" stop-opacity="0.2683"/>
<stop offset="1" stop-color="#E74A3A" stop-opacity="0"/>
</radialGradient>
<radialGradient id="paint3_radial_101_46" cx="0" cy="0" r="1" gradientUnits="userSpaceOnUse" gradientTransform="translate(94.0282 78.2683) rotate(-177.23) scale(25.4058 20.1023)">
<stop stop-color="#FF4C00"/>
<stop offset="0.1542" stop-color="#FF4C00"/>
<stop offset="0.1795" stop-color="#FF4C00"/>
<stop offset="0.3996" stop-color="#FB4C0B" stop-opacity="0.7318"/>
<stop offset="0.7799" stop-color="#EF4B27" stop-opacity="0.2683"/>
<stop offset="1" stop-color="#E74A3A" stop-opacity="0"/>
</radialGradient>
<linearGradient id="paint4_linear_101_46" x1="90.0695" y1="40.595" x2="90.1722" y2="34.2357" gradientUnits="userSpaceOnUse">
<stop offset="0.00132565" stop-color="#3C2200"/>
<stop offset="1" stop-color="#7A4400"/>
</linearGradient>
<radialGradient id="paint5_radial_101_46" cx="0" cy="0" r="1" gradientUnits="userSpaceOnUse" gradientTransform="translate(36.2677 59.6417) rotate(-176.151) scale(10.8552 5.23722)">
<stop offset="0.00132565" stop-color="#7A4400"/>
<stop offset="1" stop-color="#643800"/>
</radialGradient>
<radialGradient id="paint6_radial_101_46" cx="0" cy="0" r="1" gradientUnits="userSpaceOnUse" gradientTransform="translate(60.4653 95.4574) rotate(70.3551) scale(11.7223 8.99183)">
<stop offset="0.00132565" stop-color="#7A4400"/>
<stop offset="1" stop-color="#643800"/>
</radialGradient>
<linearGradient id="paint7_linear_101_46" x1="61.1882" y1="80.9571" x2="61.1882" y2="96.4079" gradientUnits="userSpaceOnUse">
<stop offset="0.00132565" stop-color="#3C2200"/>
<stop offset="1" stop-color="#512D00"/>
</linearGradient>
<linearGradient id="paint8_linear_101_46" x1="34.5504" y1="49.7559" x2="38.9893" y2="61.315" gradientUnits="userSpaceOnUse">
<stop offset="0.00132565" stop-color="#3C2200"/>
<stop offset="1" stop-color="#512D00"/>
</linearGradient>
<radialGradient id="paint9_radial_101_46" cx="0" cy="0" r="1" gradientUnits="userSpaceOnUse" gradientTransform="translate(86.1077 59.6427) rotate(-3.84889) scale(10.8552 5.23722)">
<stop offset="0.00132565" stop-color="#7A4400"/>
<stop offset="1" stop-color="#643800"/>
</radialGradient>
<linearGradient id="paint10_linear_101_46" x1="87.8265" y1="49.7553" x2="83.3875" y2="61.3146" gradientUnits="userSpaceOnUse">
<stop offset="0.00132565" stop-color="#3C2200"/>
<stop offset="1" stop-color="#512D00"/>
</linearGradient>
<linearGradient id="paint11_linear_101_46" x1="32.3064" y1="40.5957" x2="32.2037" y2="34.2365" gradientUnits="userSpaceOnUse">
<stop offset="0.00132565" stop-color="#3C2200"/>
<stop offset="1" stop-color="#7A4400"/>
</linearGradient>
<linearGradient id="paint12_linear_101_46" x1="31.018" y1="9.31522" x2="74.4309" y2="38.383" gradientUnits="userSpaceOnUse">
<stop stop-color="#80DAFE"/>
<stop offset="1" stop-color="#7000A3"/>
</linearGradient>
<linearGradient id="paint13_linear_101_46" x1="75.0117" y1="-3.68313" x2="94.4531" y2="26.517" gradientUnits="userSpaceOnUse">
<stop stop-color="#80DAFE"/>
<stop offset="1" stop-color="#7000A3"/>
</linearGradient>
<linearGradient id="paint14_linear_101_46" x1="106.202" y1="-2.04984" x2="121.491" y2="37.5878" gradientUnits="userSpaceOnUse">
<stop stop-color="#80DAFE"/>
<stop offset="1" stop-color="#7000A3"/>
</linearGradient>
</defs>
</svg>
